# 
# Wavefront OBJ file
# Converted by the DEEP Exploration SAP Visual Enterprise Author x64 7.0.2.65
# Right Hemisphere, LTD
# http://www.righthemisphere.com/
# 
mtllib bridge2.mtl
# object Part1
g Part1
v 218.35774 0.00000 355.47604
v 218.35774 300.00000 355.47604
v 218.35774 300.00000 175.20618
v 218.35774 0.00000 175.20618
v 790.17548 300.00000 175.20618
v 790.17548 0.00000 175.20618
v 790.17548 300.00000 347.84607
v 790.17548 0.00000 347.84607
v 1099.79578 300.00000 347.84607
v 1099.79578 0.00000 347.84607
v 1099.79578 300.00000 0.00000
v 1099.79578 0.00000 0.00000
v 0.00000 300.00000 0.00000
v 0.00000 0.00000 0.00000
v 0.00000 300.00000 355.47604
v 0.00000 0.00000 355.47604
# 16 verticies
vt 1.00000 0.00000
vt 0.00000 1.00000
vt 1.00000 1.00000
vt 0.00000 0.00000
vt 0.00000 1.00000
vt 1.00000 0.00000
vt 1.00000 1.00000
vt 0.50712 0.71847
vt 0.50712 0.19854
vt 0.02146 0.71847
vt 0.02146 1.00000
vt 0.00000 0.19854
# 12 texture verticies
vn 1.00000 0.00000 0.00000
vn -0.00000 0.00000 1.00000
vn -1.00000 0.00000 0.00000
vn 0.00000 0.00000 1.00000
vn -0.00000 -0.00000 -1.00000
vn 0.00000 0.00000 1.00000
vn 0.00000 1.00000 0.00000
vn 0.00000 -1.00000 0.00000
# 8 normals
usemtl Material__3
f  1/1/1 3/2/1 2/3/1
f  1/1/1 4/4/1 3/2/1
f  4/1/2 5/2/2 3/3/2
f  4/1/2 6/4/2 5/2/2
f  6/1/3 7/2/3 5/3/3
f  6/1/3 8/4/3 7/2/3
f  8/1/4 9/2/4 7/3/4
f  8/1/4 10/4/4 9/2/4
f  10/1/1 11/5/1 9/3/1
f  10/1/1 12/4/1 11/5/1
f  12/1/5 13/5/5 11/3/5
f  12/1/5 14/4/5 13/5/5
f  14/6/3 15/2/3 13/7/3
f  14/6/3 16/4/3 15/2/3
f  16/6/6 2/2/6 15/3/6
f  16/6/6 1/4/6 2/2/6
f  5/8/7 11/7/7 13/6/7
f  13/6/7 15/4/7 3/9/7
f  5/8/7 7/10/7 9/11/7
f  5/8/7 13/6/7 3/9/7
f  9/11/7 11/7/7 5/8/7
f  15/4/7 2/12/7 3/9/7
f  4/9/8 1/12/8 16/4/8
f  14/6/8 4/9/8 16/4/8
f  6/8/8 10/11/8 8/10/8
f  14/6/8 12/7/8 6/8/8
f  6/8/8 4/9/8 14/6/8
f  10/11/8 6/8/8 12/7/8
