# 
# Wavefront OBJ file
# Converted by the DEEP Exploration SAP Visual Enterprise Author x64 7.0.2.65
# Right Hemisphere, LTD
# http://www.righthemisphere.com/
# 
mtllib cube_half_100x100x100.mtl
# object Part1
g Part1
v -50.00000 -50.00000 100.00000
v -50.00000 -100.00000 100.00000
v -50.00000 -100.00000 0.00000
v -50.00000 -50.00000 0.00000
v -50.00000 -100.00000 100.00000
v -50.00000 -100.00000 0.00000
v 50.00000 -100.00000 0.00000
v 50.00000 -100.00000 100.00000
v 50.00000 -100.00000 0.00000
v 50.00000 -100.00000 100.00000
v 50.00000 -50.00000 0.00000
v 50.00000 -50.00000 100.00000
v -50.00000 -50.00000 100.00000
v -50.00000 -50.00000 0.00000
v 50.00000 -50.00000 0.00000
v 50.00000 -50.00000 100.00000
v -50.00000 -50.00000 100.00000
v -50.00000 -100.00000 100.00000
v 50.00000 -100.00000 100.00000
v 50.00000 -50.00000 100.00000
v -50.00000 -100.00000 0.00000
v -50.00000 -50.00000 0.00000
v 50.00000 -100.00000 0.00000
v 50.00000 -50.00000 0.00000
v -50.00000 0.00000 100.00000
v -50.00000 -50.00000 100.00000
v -50.00000 -50.00000 0.00000
v -50.00000 0.00000 0.00000
v 50.00000 -50.00000 0.00000
v 50.00000 -50.00000 100.00000
v 50.00000 0.00000 0.00000
v 50.00000 0.00000 100.00000
# 32 verticies
vt 0.00000 1.00000
vt 1.00000 0.00000
vt 0.00000 0.00000
vt 1.00000 1.00000
vt 0.00000 1.00000
vt 0.00000 10.00000
vt 10.00000 0.00000
vt 10.00000 10.00000
vt 0.00000 10.00000
# 9 texture verticies
vn -1.00000 0.00000 0.00000
vn 0.00000 -1.00000 -0.00000
vn 1.00000 -0.00000 0.00000
vn -0.00000 1.00000 0.00000
vn 0.00000 -0.00000 1.00000
vn -0.00000 0.00000 -1.00000
vn -1.00000 0.00000 0.00000
vn -0.00000 -1.00000 -0.00000
vn 1.00000 0.00000 0.00000
vn 0.00000 1.00000 0.00000
vn 0.00000 0.00000 1.00000
vn 0.00000 0.00000 -1.00000
# 12 normals
usemtl Material__1
f  1/1/1 3/2/1 2/3/1
f  1/1/1 4/4/1 3/2/1
f  7/5/2 8/4/2 5/2/2
f  5/2/2 6/3/2 7/5/2
f  11/5/3 12/4/3 10/2/3
f  10/2/3 9/3/3 11/5/3
f  16/1/4 14/2/4 13/3/4
f  16/1/4 15/4/4 14/2/4
f  17/5/5 19/2/5 20/4/5
f  19/2/5 17/5/5 18/3/5
f  22/5/6 24/4/6 23/2/6
f  23/2/6 21/3/6 22/5/6
f  25/6/7 27/7/7 26/3/7
f  25/6/7 28/8/7 27/7/7
f  29/9/8 30/8/8 26/7/8
f  26/7/8 27/3/8 29/9/8
f  31/9/9 32/8/9 30/7/9
f  30/7/9 29/3/9 31/9/9
f  32/6/10 28/7/10 25/3/10
f  32/6/10 31/8/10 28/7/10
f  25/9/11 30/7/11 32/8/11
f  30/7/11 25/9/11 26/3/11
f  28/9/12 31/8/12 29/7/12
f  29/7/12 27/3/12 28/9/12
