# 
# Wavefront OBJ file
# Converted by the DEEP Exploration SAP Visual Enterprise Author x64 7.0.2.65
# Right Hemisphere, LTD
# http://www.righthemisphere.com/
# 
mtllib Doppelwürfel.mtl
# object Part1
g Part1
v 0.73375 0.00000 6.84520
v 50.00000 0.00000 -50.00000
v 50.00000 0.00000 50.00000
v 0.73375 0.00000 36.84520
v -50.00000 0.00000 50.00000
v -29.26625 0.00000 36.84520
v -50.00000 0.00000 -50.00000
v -29.26625 0.00000 6.84520
v -50.00000 100.00000 -50.00000
v -50.00000 100.00000 50.00000
v 50.00000 100.00000 -50.00000
v 50.00000 100.00000 50.00000
v -29.26625 -30.00000 6.84520
v -29.26625 -30.00000 36.84520
v 0.73375 -30.00000 6.84520
v 0.73375 -30.00000 36.84520
# 16 verticies
vt 0.43155 0.50734
vt 1.00000 1.00000
vt 0.00000 1.00000
vt 0.13155 0.50734
vt 0.00000 0.00000
vt 0.13155 0.20734
vt 1.00000 0.00000
vt 0.43155 0.20734
vt 0.00000 1.00000
vt 1.00000 0.00000
# 10 texture verticies
vn 0.00000 -1.00000 0.00000
vn -1.00000 -0.00000 -0.00000
vn 0.00000 0.00000 -1.00000
vn 1.00000 0.00000 0.00000
vn 0.00000 0.00000 1.00000
vn 0.00000 1.00000 0.00000
# 6 normals
usemtl Material__1
f  1/1/1 2/2/1 3/3/1
f  4/4/1 5/5/1 6/6/1
f  2/2/1 1/1/1 7/7/1
f  5/5/1 7/7/1 8/8/1
f  7/7/1 1/1/1 8/8/1
f  8/8/1 6/6/1 5/5/1
f  3/3/1 5/5/1 4/4/1
f  1/1/1 3/3/1 4/4/1
f  9/3/2 5/7/2 10/2/2
f  5/7/2 9/3/2 7/5/2
f  11/3/3 7/7/3 9/2/3
f  7/7/3 11/3/3 2/5/3
f  12/3/4 2/7/4 11/2/4
f  2/7/4 12/3/4 3/5/4
f  10/3/5 3/7/5 12/2/5
f  3/7/5 10/3/5 5/5/5
f  9/7/6 12/3/6 11/2/6
f  9/7/6 10/5/6 12/3/6
f  6/9/2 8/2/2 13/10/2
f  13/10/2 14/5/2 6/9/2
f  8/9/3 1/2/3 15/10/3
f  15/10/3 13/5/3 8/9/3
f  1/9/4 4/2/4 16/10/4
f  16/10/4 15/5/4 1/9/4
f  4/9/5 6/2/5 14/10/5
f  14/10/5 16/5/5 4/9/5
f  16/3/1 13/7/1 15/2/1
f  13/7/1 16/3/1 14/5/1
